<svg width="1691" height="254" viewBox="0 0 1691 254" fill="none" xmlns="http://www.w3.org/2000/svg">
<g clip-path="url(#clip0_4_66)">
<path d="M77.9744 127.631C72.9437 124.77 98.4173 103 104.873 103L115.632 107.284L125.315 111.567L129.619 123.348C129.619 125.489 127.467 129.773 122.087 131.915C118.267 133.436 113.904 139.277 109.769 142.536C117.412 139.159 128.395 134.745 133.923 134.057C142.53 132.986 178.29 139.159 175.884 141.553C173.732 143.695 160.821 160.83 157.593 162.972C154.365 165.113 139.302 167.255 132.847 165.113C126.638 163.054 110.252 151.191 107.024 151.191C107.742 151.905 108.1 154.548 108.1 159.759C108.1 167.255 113.48 190.816 113.48 202.596C113.48 211.163 119.218 238.293 119.936 254H113.48C114.197 249.002 113.216 237.715 112.404 230.44C110.296 211.553 105.089 183.415 104.879 153.075C102.989 156.165 101.383 162.251 101.645 165.113C99.4929 170.825 92.607 180.106 77.9744 180.106C59.6836 180.106 50 154.404 50 151.191C50 141.553 68.2909 140.482 73.6705 140.482C77.3943 140.482 91.8577 142.086 101.032 143.905C93.691 140.957 84.3282 131.245 77.9744 127.631Z" fill="white"/>
<path d="M104.873 144.766C97.265 144.766 85.5058 131.915 77.9744 127.631C72.9437 124.77 98.4173 103 104.873 103L115.632 107.284L125.315 111.567L129.619 123.348C129.619 125.489 127.467 129.773 122.087 131.915C116.708 134.057 110.252 144.766 104.873 144.766ZM104.873 144.766C96.6239 142.624 77.9743 140.482 73.6705 140.482C68.2909 140.482 50 141.553 50 151.191C50 154.404 59.6836 180.106 77.9744 180.106C92.607 180.106 99.4929 170.825 101.645 165.113C101.286 161.187 104.442 151.191 107.024 151.191M104.873 144.766C111.687 141.553 127.037 134.913 133.923 134.057C142.53 132.986 178.29 139.159 175.884 141.553C173.732 143.695 160.821 160.83 157.593 162.972C154.365 165.113 139.302 167.255 132.847 165.113C126.638 163.054 110.252 151.191 107.024 151.191M107.024 151.191C107.742 151.905 108.1 154.548 108.1 159.759C108.1 167.255 113.48 190.816 113.48 202.596C113.48 211.163 119.218 238.293 119.936 254H113.48C114.197 249.002 113.216 237.715 112.404 230.44C110.252 211.163 104.873 182.248 104.873 151.191" stroke="black"/>
<path d="M309.974 127.631C304.944 124.77 330.417 104 336.873 104L347.632 107.284L357.315 111.567L361.619 123.348C361.619 125.489 359.467 129.773 354.087 131.915C350.267 133.436 345.904 139.277 341.769 142.536C349.412 139.159 360.395 134.745 365.923 134.057C374.53 132.986 410.29 139.159 407.884 141.553C405.732 143.695 392.821 159.83 389.593 161.972C386.365 164.113 371.302 166.255 364.847 164.113C358.638 162.054 342.252 151.191 339.024 151.191C339.742 151.905 340.1 154.548 340.1 159.759C340.1 167.255 345.48 190.816 345.48 202.596C345.48 211.163 351.218 238.293 351.936 254H345.48C346.197 249.002 345.216 237.715 344.404 230.44C342.296 211.553 337.089 183.415 336.879 153.075C334.989 156.165 333.383 162.251 333.645 165.113C331.493 170.825 324.607 180.106 309.974 180.106C291.684 180.106 282 155.404 282 152.191C282 142.553 300.291 141.482 305.671 141.482C309.426 141.482 324.102 142.352 333.262 143.996C325.888 141.161 316.395 131.283 309.974 127.631Z" fill="white"/>
<path d="M336.873 144.766C329.265 144.766 317.506 131.915 309.974 127.631C304.944 124.77 330.417 104 336.873 104L347.632 107.284L357.315 111.567L361.619 123.348C361.619 125.489 359.467 129.773 354.087 131.915C348.708 134.057 342.252 144.766 336.873 144.766ZM336.873 144.766C328.624 142.624 309.974 141.482 305.671 141.482C300.291 141.482 282 142.553 282 152.191C282 155.404 291.684 180.106 309.974 180.106C324.607 180.106 331.493 170.825 333.645 165.113C333.286 161.187 336.442 151.191 339.024 151.191M336.873 144.766C343.687 141.553 359.037 134.913 365.923 134.057C374.53 132.986 410.29 139.159 407.884 141.553C405.732 143.695 392.821 159.83 389.593 161.972C386.365 164.113 371.302 166.255 364.847 164.113C358.638 162.054 342.252 151.191 339.024 151.191M339.024 151.191C339.742 151.905 340.1 154.548 340.1 159.759C340.1 167.255 345.48 190.816 345.48 202.596C345.48 211.163 351.218 238.293 351.936 254H345.48C346.197 249.002 345.216 237.715 344.404 230.44C342.252 211.163 336.873 182.248 336.873 151.191" stroke="black"/>
<path d="M541.974 127.631C536.944 124.77 562.417 105 568.873 105L579.632 107.284L589.315 111.567L593.619 123.348C593.619 125.489 591.467 129.773 586.087 131.915C582.267 133.436 577.904 139.277 573.769 142.536C581.412 139.159 592.395 134.745 597.923 134.057C606.53 132.986 642.29 139.159 639.884 141.553C637.732 143.695 624.821 159.83 621.593 161.972C618.365 164.113 603.302 166.255 596.847 164.113C590.638 162.054 574.252 151.191 571.024 151.191C571.742 151.905 572.1 154.548 572.1 159.759C572.1 167.255 577.48 190.816 577.48 202.596C577.48 211.163 583.218 238.293 583.936 254H577.48C578.197 249.002 577.216 237.715 576.404 230.44C574.296 211.553 569.089 183.415 568.879 153.075C566.989 156.165 565.383 162.251 565.645 165.113C563.493 170.825 556.607 180.106 541.974 180.106C523.684 180.106 514 155.404 514 152.191C514 142.553 532.291 141.482 537.671 141.482C541.426 141.482 556.102 142.352 565.262 143.996C557.888 141.161 548.395 131.283 541.974 127.631Z" fill="white"/>
<path d="M568.873 144.766C561.265 144.766 549.506 131.915 541.974 127.631C536.944 124.77 562.417 105 568.873 105L579.632 107.284L589.315 111.567L593.619 123.348C593.619 125.489 591.467 129.773 586.087 131.915C580.708 134.057 574.252 144.766 568.873 144.766ZM568.873 144.766C560.624 142.624 541.974 141.482 537.671 141.482C532.291 141.482 514 142.553 514 152.191C514 155.404 523.684 180.106 541.974 180.106C556.607 180.106 563.493 170.825 565.645 165.113C565.286 161.187 568.442 151.191 571.024 151.191M568.873 144.766C575.687 141.553 591.037 134.913 597.923 134.057C606.53 132.986 642.29 139.159 639.884 141.553C637.732 143.695 624.821 159.83 621.593 161.972C618.365 164.113 603.302 166.255 596.847 164.113C590.638 162.054 574.252 151.191 571.024 151.191M571.024 151.191C571.742 151.905 572.1 154.548 572.1 159.759C572.1 167.255 577.48 190.816 577.48 202.596C577.48 211.163 583.218 238.293 583.936 254H577.48C578.197 249.002 577.216 237.715 576.404 230.44C574.252 211.163 568.873 182.248 568.873 151.191" stroke="black"/>
<path d="M773.974 127.631C768.944 124.77 794.417 105 800.873 105L811.632 107.284L821.315 111.567L825.619 123.348C825.619 125.489 823.467 129.773 818.087 131.915C814.267 133.436 809.904 139.277 805.769 142.536C813.412 139.159 824.395 134.745 829.923 134.057C838.53 132.986 874.29 139.159 871.884 141.553C869.732 143.695 856.821 158.83 853.593 160.972C850.365 163.113 835.302 165.255 828.847 163.113C822.638 161.054 806.252 151.191 803.024 151.191C803.742 151.905 804.1 154.548 804.1 159.759C804.1 167.255 809.48 190.816 809.48 202.596C809.48 211.163 815.218 238.293 815.936 254H809.48C810.197 249.002 809.216 237.715 808.404 230.44C806.296 211.553 801.089 183.415 800.879 153.075C798.989 156.165 797.383 162.251 797.645 165.113C795.493 170.825 788.607 180.106 773.974 180.106C755.684 180.106 746 155.404 746 152.191C746 142.553 764.291 141.482 769.671 141.482C773.426 141.482 788.102 142.352 797.262 143.996C789.888 141.161 780.395 131.283 773.974 127.631Z" fill="white"/>
<path d="M800.873 144.766C793.265 144.766 781.506 131.915 773.974 127.631C768.944 124.77 794.417 105 800.873 105L811.632 107.284L821.315 111.567L825.619 123.348C825.619 125.489 823.467 129.773 818.087 131.915C812.708 134.057 806.252 144.766 800.873 144.766ZM800.873 144.766C792.624 142.624 773.974 141.482 769.671 141.482C764.291 141.482 746 142.553 746 152.191C746 155.404 755.684 180.106 773.974 180.106C788.607 180.106 795.493 170.825 797.645 165.113C797.286 161.187 800.442 151.191 803.024 151.191M800.873 144.766C807.687 141.553 823.037 134.913 829.923 134.057C838.53 132.986 874.29 139.159 871.884 141.553C869.732 143.695 856.821 158.83 853.593 160.972C850.365 163.113 835.302 165.255 828.847 163.113C822.638 161.054 806.252 151.191 803.024 151.191M803.024 151.191C803.742 151.905 804.1 154.548 804.1 159.759C804.1 167.255 809.48 190.816 809.48 202.596C809.48 211.163 815.218 238.293 815.936 254H809.48C810.197 249.002 809.216 237.715 808.404 230.44C806.252 211.163 800.873 182.248 800.873 151.191" stroke="black"/>
<path d="M1005.97 127.631C1000.94 124.77 1026.42 104 1032.87 104L1043.63 107.284L1053.32 111.567L1057.62 123.348C1057.62 125.489 1055.47 129.773 1050.09 131.915C1046.27 133.436 1041.9 139.277 1037.77 142.536C1045.41 139.159 1056.39 134.745 1061.92 134.057C1070.53 132.986 1106.29 139.159 1103.88 141.553C1101.73 143.695 1088.82 158.83 1085.59 160.972C1082.37 163.113 1067.3 165.255 1060.85 163.113C1054.64 161.054 1038.25 151.191 1035.02 151.191C1035.74 151.905 1036.1 154.548 1036.1 159.759C1036.1 167.255 1041.48 190.816 1041.48 202.596C1041.48 211.163 1047.22 238.293 1047.94 254H1041.48C1042.2 249.002 1041.22 237.715 1040.4 230.44C1038.3 211.553 1033.09 183.415 1032.88 153.075C1030.99 156.165 1029.38 162.251 1029.64 165.113C1027.49 170.825 1020.61 180.106 1005.97 180.106C987.684 180.106 978 156.404 978 153.191C978 143.553 996.291 142.482 1001.67 142.482C1005.45 142.482 1020.32 142.592 1029.47 144.073C1022.07 141.346 1012.45 131.317 1005.97 127.631Z" fill="white"/>
<path d="M1032.87 144.766C1025.27 144.766 1013.51 131.915 1005.97 127.631C1000.94 124.77 1026.42 104 1032.87 104L1043.63 107.284L1053.32 111.567L1057.62 123.348C1057.62 125.489 1055.47 129.773 1050.09 131.915C1044.71 134.057 1038.25 144.766 1032.87 144.766ZM1032.87 144.766C1024.62 142.624 1005.97 142.482 1001.67 142.482C996.291 142.482 978 143.553 978 153.191C978 156.404 987.684 180.106 1005.97 180.106C1020.61 180.106 1027.49 170.825 1029.64 165.113C1029.29 161.187 1032.44 151.191 1035.02 151.191M1032.87 144.766C1039.69 141.553 1055.04 134.913 1061.92 134.057C1070.53 132.986 1106.29 139.159 1103.88 141.553C1101.73 143.695 1088.82 158.83 1085.59 160.972C1082.37 163.113 1067.3 165.255 1060.85 163.113C1054.64 161.054 1038.25 151.191 1035.02 151.191M1035.02 151.191C1035.74 151.905 1036.1 154.548 1036.1 159.759C1036.1 167.255 1041.48 190.816 1041.48 202.596C1041.48 211.163 1047.22 238.293 1047.94 254H1041.48C1042.2 249.002 1041.22 237.715 1040.4 230.44C1038.25 211.163 1032.87 182.248 1032.87 151.191" stroke="black"/>
<path d="M1237.97 127.631C1232.94 124.77 1258.42 104 1264.87 104L1275.63 107.284L1285.32 111.567L1289.62 123.348C1289.62 125.489 1287.47 129.773 1282.09 131.915C1278.27 133.436 1273.9 139.277 1269.77 142.536C1277.41 139.159 1288.39 134.745 1293.92 134.057C1302.53 132.986 1338.29 139.159 1335.88 141.553C1333.73 143.695 1320.82 159.83 1317.59 161.972C1314.37 164.113 1299.3 166.255 1292.85 164.113C1286.64 162.054 1270.25 151.191 1267.02 151.191C1267.74 151.905 1268.1 154.548 1268.1 159.759C1268.1 167.255 1273.48 190.816 1273.48 202.596C1273.48 211.163 1279.22 238.293 1279.94 254H1273.48C1274.2 249.002 1273.22 237.715 1272.4 230.44C1270.3 211.553 1265.09 183.415 1264.88 153.075C1262.99 156.165 1261.38 162.251 1261.64 165.113C1259.49 170.825 1252.61 180.106 1237.97 180.106C1219.68 180.106 1210 155.404 1210 152.191C1210 142.553 1228.29 141.482 1233.67 141.482C1237.43 141.482 1252.1 142.352 1261.26 143.996C1253.89 141.161 1244.39 131.283 1237.97 127.631Z" fill="white"/>
<path d="M1264.87 144.766C1257.27 144.766 1245.51 131.915 1237.97 127.631C1232.94 124.77 1258.42 104 1264.87 104L1275.63 107.284L1285.32 111.567L1289.62 123.348C1289.62 125.489 1287.47 129.773 1282.09 131.915C1276.71 134.057 1270.25 144.766 1264.87 144.766ZM1264.87 144.766C1256.62 142.624 1237.97 141.482 1233.67 141.482C1228.29 141.482 1210 142.553 1210 152.191C1210 155.404 1219.68 180.106 1237.97 180.106C1252.61 180.106 1259.49 170.825 1261.64 165.113C1261.29 161.187 1264.44 151.191 1267.02 151.191M1264.87 144.766C1271.69 141.553 1287.04 134.913 1293.92 134.057C1302.53 132.986 1338.29 139.159 1335.88 141.553C1333.73 143.695 1320.82 159.83 1317.59 161.972C1314.37 164.113 1299.3 166.255 1292.85 164.113C1286.64 162.054 1270.25 151.191 1267.02 151.191M1267.02 151.191C1267.74 151.905 1268.1 154.548 1268.1 159.759C1268.1 167.255 1273.48 190.816 1273.48 202.596C1273.48 211.163 1279.22 238.293 1279.94 254H1273.48C1274.2 249.002 1273.22 237.715 1272.4 230.44C1270.25 211.163 1264.87 182.248 1264.87 151.191" stroke="black"/>
<path d="M1469.97 127.631C1464.94 124.77 1490.42 103 1496.87 103L1507.63 107.284L1517.32 111.567L1521.62 123.348C1521.62 125.489 1519.47 129.773 1514.09 131.915C1510.27 133.436 1505.9 139.277 1501.77 142.536C1509.41 139.159 1520.39 134.745 1525.92 134.057C1534.53 132.986 1570.29 139.159 1567.88 141.553C1565.73 143.695 1552.82 160.83 1549.59 162.972C1546.37 165.113 1531.3 167.255 1524.85 165.113C1518.64 163.054 1502.25 151.191 1499.02 151.191C1499.74 151.905 1500.1 154.548 1500.1 159.759C1500.1 167.255 1505.48 190.816 1505.48 202.596C1505.48 211.163 1511.22 238.293 1511.94 254H1505.48C1506.2 249.002 1505.22 237.715 1504.4 230.44C1502.3 211.553 1497.09 183.415 1496.88 153.075C1494.99 156.165 1493.38 162.251 1493.64 165.113C1491.49 170.825 1484.61 180.106 1469.97 180.106C1451.68 180.106 1442 154.404 1442 151.191C1442 141.553 1460.29 140.482 1465.67 140.482C1469.39 140.482 1483.86 142.086 1493.03 143.905C1485.69 140.957 1476.33 131.245 1469.97 127.631Z" fill="white"/>
<path d="M1496.87 144.766C1489.27 144.766 1477.51 131.915 1469.97 127.631C1464.94 124.77 1490.42 103 1496.87 103L1507.63 107.284L1517.32 111.567L1521.62 123.348C1521.62 125.489 1519.47 129.773 1514.09 131.915C1508.71 134.057 1502.25 144.766 1496.87 144.766ZM1496.87 144.766C1488.62 142.624 1469.97 140.482 1465.67 140.482C1460.29 140.482 1442 141.553 1442 151.191C1442 154.404 1451.68 180.106 1469.97 180.106C1484.61 180.106 1491.49 170.825 1493.64 165.113C1493.29 161.187 1496.44 151.191 1499.02 151.191M1496.87 144.766C1503.69 141.553 1519.04 134.913 1525.92 134.057C1534.53 132.986 1570.29 139.159 1567.88 141.553C1565.73 143.695 1552.82 160.83 1549.59 162.972C1546.37 165.113 1531.3 167.255 1524.85 165.113C1518.64 163.054 1502.25 151.191 1499.02 151.191M1499.02 151.191C1499.74 151.905 1500.1 154.548 1500.1 159.759C1500.1 167.255 1505.48 190.816 1505.48 202.596C1505.48 211.163 1511.22 238.293 1511.94 254H1505.48C1506.2 249.002 1505.22 237.715 1504.4 230.44C1502.25 211.163 1496.87 182.248 1496.87 151.191" stroke="black"/>
</g>
<defs>
<clipPath id="clip0_4_66">
<rect width="1691" height="254" fill="white"/>
</clipPath>
</defs>
</svg>
