<svg width="1303" height="778" viewBox="0 0 1303 778" fill="none" xmlns="http://www.w3.org/2000/svg">
<rect width="1303" height="778" fill="white"/>
<path d="M136.586 387.586C135.805 388.367 135.805 389.633 136.586 390.414L149.314 403.142C150.095 403.923 151.361 403.923 152.142 403.142C152.923 402.361 152.923 401.095 152.142 400.314L140.828 389L152.142 377.686C152.923 376.905 152.923 375.639 152.142 374.858C151.361 374.077 150.095 374.077 149.314 374.858L136.586 387.586ZM1166.41 390.414C1167.2 389.633 1167.2 388.367 1166.41 387.586L1153.69 374.858C1152.91 374.077 1151.64 374.077 1150.86 374.858C1150.08 375.639 1150.08 376.905 1150.86 377.686L1162.17 389L1150.86 400.314C1150.08 401.095 1150.08 402.361 1150.86 403.142C1151.64 403.923 1152.91 403.923 1153.69 403.142L1166.41 390.414ZM138 391L1165 391L1165 387L138 387L138 391Z" fill="#06ABBE"/>
<path d="M649.586 685.569C650.367 686.35 651.633 686.35 652.414 685.569L665.142 672.841C665.923 672.06 665.923 670.793 665.142 670.012C664.361 669.231 663.095 669.231 662.314 670.012L651 681.326L639.686 670.012C638.905 669.231 637.639 669.231 636.858 670.012C636.077 670.793 636.077 672.06 636.858 672.841L649.586 685.569ZM652.414 92.5857C651.633 91.8046 650.367 91.8046 649.586 92.5857L636.858 105.314C636.077 106.095 636.077 107.361 636.858 108.142C637.639 108.923 638.905 108.923 639.686 108.142L651 96.8283L662.314 108.142C663.095 108.923 664.361 108.923 665.142 108.142C665.923 107.361 665.923 106.095 665.142 105.314L652.414 92.5857ZM653 684.154L653 93.9999L649 93.9999L649 684.154L653 684.154Z" fill="#06ABBE"/>
<path d="M726.855 321.796H712.249V323.427H718.633V344H720.506V323.427H726.855V321.796ZM741.253 335.569C741.253 331.545 738.373 328.284 734.071 328.284C729.665 328.284 726.543 331.822 726.543 336.194C726.543 340.704 729.596 344.312 734.418 344.312C736.951 344.312 739.171 343.306 740.49 341.78L739.206 340.739C738.13 341.988 736.5 342.751 734.418 342.751C730.671 342.751 728.451 339.941 728.416 336.333H741.253V335.569ZM734.071 329.845C737.124 329.845 739.206 331.961 739.449 334.98H728.52C728.971 331.996 731.088 329.845 734.071 329.845ZM758.003 328.7L757.725 331.788C756.511 329.637 754.43 328.284 751.723 328.284C747.664 328.284 744.472 331.476 744.472 336.298C744.472 341.12 747.664 344.312 751.723 344.312C754.43 344.312 756.511 342.959 757.725 340.843L758.003 344H759.495V328.7H758.003ZM752.105 342.751C748.705 342.751 746.311 339.941 746.311 336.298C746.311 332.655 748.705 329.845 752.07 329.845C755.505 329.845 757.899 332.655 757.899 336.298C757.899 339.976 755.505 342.751 752.105 342.751ZM780.667 328.284C778.065 328.284 776.434 329.498 775.636 331.718C774.665 329.116 772.514 328.284 770.744 328.284C768.836 328.284 767.032 329.359 766.199 331.337L765.991 328.7H764.43V344H766.234V334.771C766.477 331.684 768.108 329.845 770.432 329.845C772.999 329.845 774.353 331.927 774.353 334.91V344H776.122V335.882C776.122 332.031 777.718 329.845 780.32 329.845C783.061 329.845 784.275 331.927 784.275 335.014V344H786.079V334.98C786.079 329.741 783.199 328.284 780.667 328.284ZM801.01 325.057C801.808 325.057 802.467 324.398 802.467 323.635C802.467 322.837 801.808 322.178 801.01 322.178C800.212 322.178 799.553 322.837 799.553 323.635C799.553 324.398 800.212 325.057 801.01 325.057ZM800.108 344H801.912V328.7H800.108V344ZM823.598 328.284C820.996 328.284 819.366 329.498 818.568 331.718C817.596 329.116 815.445 328.284 813.676 328.284C811.768 328.284 809.964 329.359 809.131 331.337L808.923 328.7H807.362V344H809.166V334.771C809.409 331.684 811.039 329.845 813.364 329.845C815.931 329.845 817.284 331.927 817.284 334.91V344H819.054V335.882C819.054 332.031 820.649 329.845 823.251 329.845C825.992 329.845 827.207 331.927 827.207 335.014V344H829.011V334.98C829.011 329.741 826.131 328.284 823.598 328.284ZM841.53 328.284C838.823 328.284 836.707 329.671 835.493 331.822L835.319 328.7H833.758V351.286H835.562V340.912C836.777 342.994 838.858 344.312 841.53 344.312C845.589 344.312 848.781 341.12 848.781 336.298C848.781 331.476 845.589 328.284 841.53 328.284ZM841.148 342.751C837.748 342.751 835.319 339.976 835.319 336.298C835.319 332.655 837.748 329.845 841.183 329.845C844.548 329.845 846.907 332.655 846.907 336.298C846.907 339.941 844.548 342.751 841.148 342.751ZM865.581 328.7L865.304 331.788C864.089 329.637 862.008 328.284 859.302 328.284C855.242 328.284 852.051 331.476 852.051 336.298C852.051 341.12 855.242 344.312 859.302 344.312C862.008 344.312 864.089 342.959 865.304 340.843L865.581 344H867.073V328.7H865.581ZM859.683 342.751C856.283 342.751 853.889 339.941 853.889 336.298C853.889 332.655 856.283 329.845 859.648 329.845C863.083 329.845 865.477 332.655 865.477 336.298C865.477 339.976 863.083 342.751 859.683 342.751ZM878.982 344.347C880.959 344.347 882.659 343.688 883.978 342.612L882.902 341.329C881.896 342.231 880.543 342.786 878.982 342.786C875.269 342.786 873.014 339.941 873.014 336.298C873.014 332.655 875.269 329.81 878.982 329.81C880.543 329.81 881.896 330.365 882.902 331.267L883.978 329.984C882.659 328.908 880.959 328.284 878.982 328.284C874.263 328.284 871.176 331.857 871.176 336.298C871.176 340.739 874.263 344.347 878.982 344.347ZM894.826 328.7H890.94V324.224H889.17V328.7H886.881V330.192H889.17V344H890.94V330.192H894.826V328.7Z" fill="#2B2A40"/>
<path d="M566.653 157.686C566.653 162.612 569.567 165.527 575.361 165.527L589.204 165.527L589.204 163.653L575.604 163.653C570.816 163.653 568.353 161.537 568.353 157.686C568.353 153.835 570.816 151.718 575.604 151.718L589.204 151.718L589.204 149.845L575.361 149.845C569.567 149.845 566.653 152.794 566.653 157.686ZM569.255 169.7C567.833 170.567 566.653 172.649 566.653 175.216C566.653 178.477 568.353 180.767 571.059 180.767C576.888 180.767 574.078 172.371 578.449 172.336C580.08 172.336 581.12 173.516 581.155 175.598C581.155 177.089 580.565 178.304 579.698 179.206L580.878 180.351C581.849 179.379 582.716 177.749 582.716 175.598C582.716 172.51 580.982 170.463 578.345 170.498C572.586 170.498 575.292 178.859 570.99 178.859C569.324 178.859 568.249 177.506 568.249 175.181C568.249 173.377 569.047 171.92 570.331 171.053L569.255 169.7ZM575.431 198.735C579.455 198.735 582.716 195.856 582.716 191.554C582.716 187.148 579.178 184.025 574.806 184.025C570.296 184.025 566.688 187.078 566.688 191.901C566.688 194.433 567.694 196.654 569.22 197.972L570.261 196.688C569.012 195.613 568.249 193.982 568.249 191.901C568.249 188.154 571.059 185.933 574.667 185.899L574.667 198.735L575.431 198.735ZM581.155 191.554C581.155 194.607 579.039 196.688 576.02 196.931L576.02 186.003C579.004 186.454 581.155 188.57 581.155 191.554ZM582.716 208.928C582.716 206.916 581.259 205.355 579.559 204.557L582.3 204.314L582.3 202.787L567 202.787L567 204.592L576.229 204.592C579.143 204.626 580.982 206.222 580.982 208.651C580.982 209.136 580.912 209.483 580.808 209.865L582.578 210.247C582.682 209.865 582.716 209.518 582.716 208.928ZM585.943 223.364C585.943 224.162 586.602 224.821 587.365 224.821C588.163 224.821 588.822 224.162 588.822 223.364C588.822 222.566 588.163 221.907 587.365 221.907C586.602 221.907 585.943 222.566 585.943 223.364ZM567 222.462L567 224.266L582.3 224.266L582.3 222.462L567 222.462ZM582.716 245.952C582.716 243.35 581.502 241.719 579.282 240.921C581.884 239.95 582.716 237.799 582.716 236.03C582.716 234.121 581.641 232.317 579.663 231.485L582.3 231.276L582.3 229.715L567 229.715L567 231.519L576.229 231.519C579.316 231.762 581.155 233.393 581.155 235.717C581.155 238.285 579.073 239.638 576.09 239.638L567 239.638L567 241.407L575.118 241.407C578.969 241.407 581.155 243.003 581.155 245.605C581.155 248.346 579.073 249.56 575.986 249.56L567 249.56L567 251.364L576.02 251.364C581.259 251.364 582.716 248.485 582.716 245.952ZM582.716 263.883C582.716 261.177 581.329 259.061 579.178 257.846L582.3 257.673L582.3 256.112L559.714 256.112L559.714 257.916L570.088 257.916C568.006 259.13 566.688 261.212 566.688 263.883C566.688 267.942 569.88 271.134 574.702 271.134C579.524 271.134 582.716 267.942 582.716 263.883ZM568.249 263.501C568.249 260.101 571.024 257.673 574.702 257.673C578.345 257.673 581.155 260.101 581.155 263.536C581.155 266.901 578.345 269.261 574.702 269.261C571.059 269.261 568.249 266.901 568.249 263.501ZM582.3 287.935L579.212 287.657C581.363 286.443 582.716 284.361 582.716 281.655C582.716 277.596 579.524 274.404 574.702 274.404C569.88 274.404 566.688 277.596 566.688 281.655C566.688 284.361 568.041 286.443 570.157 287.657L567 287.935L567 289.426L582.3 289.426L582.3 287.935ZM568.249 282.037C568.249 278.637 571.059 276.243 574.702 276.243C578.345 276.243 581.155 278.637 581.155 282.002C581.155 285.437 578.345 287.831 574.702 287.831C571.024 287.831 568.249 285.437 568.249 282.037ZM566.653 301.335C566.653 303.313 567.312 305.013 568.388 306.331L569.671 305.256C568.769 304.249 568.214 302.896 568.214 301.335C568.214 297.623 571.059 295.368 574.702 295.368C578.345 295.368 581.19 297.623 581.19 301.335C581.19 302.896 580.635 304.249 579.733 305.256L581.016 306.331C582.092 305.013 582.716 303.313 582.716 301.335C582.716 296.617 579.143 293.529 574.702 293.529C570.261 293.529 566.653 296.617 566.653 301.335ZM582.3 317.179L582.3 313.293L586.776 313.293L586.776 311.524L582.3 311.524L582.3 309.234L580.808 309.234L580.808 311.524L567 311.524L567 313.293L580.808 313.293L580.808 317.179L582.3 317.179Z" fill="#2B2A40"/>
</svg>
